<svg width="40" height="40" viewBox="0 0 40 40" fill="none" xmlns="http://www.w3.org/2000/svg">
<path d="M12.8889 4C7.98044 4 4 7.98044 4 12.8889V27.1111C4 32.0196 7.98044 36 12.8889 36H27.1111C32.0196 36 36 32.0196 36 27.1111V12.8889C36 7.98044 32.0196 4 27.1111 4H12.8889ZM30.6667 7.55556C31.648 7.55556 32.4444 8.352 32.4444 9.33333C32.4444 10.3147 31.648 11.1111 30.6667 11.1111C29.6853 11.1111 28.8889 10.3147 28.8889 9.33333C28.8889 8.352 29.6853 7.55556 30.6667 7.55556ZM20 11.1111C24.9084 11.1111 28.8889 15.0916 28.8889 20C28.8889 24.9084 24.9084 28.8889 20 28.8889C15.0916 28.8889 11.1111 24.9084 11.1111 20C11.1111 15.0916 15.0916 11.1111 20 11.1111ZM20 14.6667C18.5855 14.6667 17.229 15.2286 16.2288 16.2288C15.2286 17.229 14.6667 18.5855 14.6667 20C14.6667 21.4145 15.2286 22.771 16.2288 23.7712C17.229 24.7714 18.5855 25.3333 20 25.3333C21.4145 25.3333 22.771 24.7714 23.7712 23.7712C24.7714 22.771 25.3333 21.4145 25.3333 20C25.3333 18.5855 24.7714 17.229 23.7712 16.2288C22.771 15.2286 21.4145 14.6667 20 14.6667Z" fill="#C9C9C9"/>
</svg>
