<svg width="156" height="156" viewBox="0 0 156 156" fill="none" xmlns="http://www.w3.org/2000/svg">
<path fill-rule="evenodd" clip-rule="evenodd" d="M98.2078 135.661L98.1013 135.904C96.3305 139.982 94.6155 141.059 93.1204 140.729C91.2022 140.304 90.0894 138.817 89.4328 136.949C88.8552 135.302 87.9799 126.973 87.6469 123.605C87.5609 122.437 87.0734 115.621 86.986 114.393C86.8973 113.208 86.2269 106.161 86.1258 104.973C85.9838 103.73 84.5788 97.9851 84.4083 96.801C84.1379 95.7054 83.8416 94.6814 83.5167 93.7502C82.0912 89.6601 78.1331 85.0152 74.8386 90.3624C72.0136 94.9399 70.109 106.091 69.2298 124.346C68.8379 132.476 60.2649 137.051 56.8665 125.756C51.5361 108.042 51.1211 102.925 48.6758 83.8774C41.6457 73.5046 38.2665 54.9769 37.095 47.4694C29.1117 34.2115 26.2841 26.4035 23.75 16.0897C48.2156 60.928 82.3847 88.865 132.25 105.514C121.386 104.77 112.556 102.526 105.25 100.56C104.977 101.8 104.279 106.175 103.997 108.052C98.754 106.238 90.0799 102.665 84.4083 96.801C87.8749 103.275 99.7124 110.72 103.382 112.112C103.178 113.451 102.967 114.801 102.752 116.146C96.5845 114.076 90.1277 109.955 86.1258 104.973C88.6913 110.581 96.5025 117.924 102.073 120.204C101.84 121.54 101.598 122.852 101.347 124.128C96.0724 122.295 90.9837 118.77 86.986 114.393C88.5015 117.482 92.4365 123.125 100.493 128.137C100.187 129.453 99.8666 130.698 99.5322 131.849C95.2327 130.139 90.9893 127.285 87.6469 123.605C89.363 127.417 92.1416 131.241 98.2078 135.661V135.661Z" fill="#5A5A5A"/>
<path fill-rule="evenodd" clip-rule="evenodd" d="M40.3701 35.8508C49.0996 48.0517 70.6492 53.6273 88.0451 43.8723C114.901 28.814 112.17 57.068 106.017 69.3117C102.984 75.3438 104.054 81.3001 107.447 82.5242C107.447 82.5242 116.093 67.5499 117.553 52.5834C118.47 43.1721 116.174 35.4536 111.403 30.9209C107.691 27.3964 100.928 25.5435 94.763 26.6065C81.1884 28.9445 78.9958 42.4718 61.3277 39.6286C69.8305 39.8437 73.9578 36.3631 77.1984 32.4126C62.1189 34.5009 49.9735 16.0847 40.3701 35.8508V35.8508Z" fill="#F3F3F3"/>
</svg>
