<svg width="40" height="40" viewBox="0 0 40 40" fill="none" xmlns="http://www.w3.org/2000/svg">
<g clip-path="url(#clip0_201_109)">
<path d="M3.12496 30.0316H18.875V34.0625H11.2812V36.3125H28.7188V34.0625H21.125V30.0316H36.875C37.4938 30.0316 38.0001 29.5254 38.0001 28.9067V4.81246C38.0001 4.1937 37.4938 3.6875 36.875 3.6875H3.12496C2.50628 3.6875 2 4.1937 2 4.81246V28.9066C2 29.5254 2.50628 30.0316 3.12496 30.0316ZM4.25 5.9375H35.75V27.7816H4.25V5.9375Z" fill="#C9C9C9"/>
<rect x="4" y="5" width="32" height="23" fill="#C9C9C9"/>
<path d="M29.9011 18.1347L28.7795 13.6639H27.2428L26.0716 18.0616L25.1064 13.6639H24.1917H23.7834H22.8902L21.9069 18.1347L20.7853 13.6639H19.2485L18.0785 18.0616L17.1133 13.6639H16.1975H15.7903H14.8959L13.9137 18.1347L12.7922 13.6639H11.2554L10.0843 18.0616L9.11898 13.6639H7.79602L9.32492 20.0652H10.7266L11.9968 15.2795L13.2725 20.0652H14.6428L15.9916 14.5099L17.318 20.0652H18.7197L19.991 15.2795L21.2657 20.0652H22.637L23.9859 14.5099L25.3123 20.0652H26.714L27.9842 15.2795L29.2588 20.0652H30.6302L32.1849 13.6639H30.8844L29.9011 18.1347Z" fill="#3F3F3F"/>
</g>
<defs>
<clipPath id="clip0_201_109">
<rect width="36" height="36" fill="white" transform="translate(2 2)"/>
</clipPath>
</defs>
</svg>
