<svg width="40" height="40" viewBox="0 0 40 40" fill="none" xmlns="http://www.w3.org/2000/svg">
<path d="M31.3246 8.6848C28.3068 5.6656 24.2938 4.0016 20.0184 4C11.2084 4 4.0384 11.1664 4.0352 19.976C4.0336 22.792 4.76964 25.5408 6.16811 27.9632L4 36L12.3732 34.0208C14.7077 35.2944 17.3351 35.9648 20.0104 35.9664H20.0168C28.8252 35.9664 35.9952 28.7984 36 19.9904C36.0032 15.72 34.3423 11.7056 31.3246 8.6848ZM27.838 25.6864C27.5052 26.6192 25.8747 27.5184 25.1419 27.584C24.409 27.6512 23.7226 27.9152 20.3496 26.5856C16.2902 24.9856 13.7269 20.824 13.5285 20.5584C13.3285 20.2912 11.898 18.3936 11.898 16.4288C11.898 14.464 12.93 13.4976 13.2965 13.0992C13.6629 12.6992 14.0949 12.6 14.3621 12.6C14.6277 12.6 14.8949 12.6 15.127 12.6096C15.4118 12.6208 15.727 12.6352 16.0262 13.2992C16.3814 14.0896 17.1575 16.064 17.2567 16.264C17.3559 16.464 17.4231 16.6976 17.2903 16.9632C17.1575 17.2288 17.0903 17.3952 16.8918 17.6288C16.6918 17.8624 16.4726 18.1488 16.2934 18.328C16.0934 18.5264 15.8854 18.744 16.1174 19.1424C16.351 19.5424 17.1511 20.8496 18.3383 21.9072C19.8648 23.2672 21.1497 23.688 21.5497 23.8896C21.9497 24.0896 22.1817 24.056 22.4153 23.7888C22.6489 23.5232 23.4138 22.624 23.6794 22.224C23.945 21.824 24.2122 21.8912 24.5786 22.024C24.945 22.1568 26.9083 23.1232 27.3068 23.3232C27.7068 23.5232 27.9724 23.6224 28.0716 23.7888C28.1708 23.9536 28.1708 24.7536 27.838 25.6864Z" fill="#C9C9C9"/>
</svg>
